<svg viewBox="0 0 757 600" fill="none" xmlns="http://www.w3.org/2000/svg">
    <g id="la_petite_cuisine">
        <circle id="plate" cx="384" cy="300" r="298.5" stroke="#F7C553" stroke-width="3"/>
        <g id="chef_hat">
            <mask id="path-2-inside-1_9_3" fill="white">
                <path d="M380.195 32.2419C372.746 33.0643 365.712 36.4438 360.459 41.7307C357.486 44.7163 355.068 48.2755 353.737 51.662C353.405 52.4567 353.273 52.588 352.85 52.4981C349.815 51.7518 343.384 51.7725 340.058 52.5466C333.981 53.9356 328.839 56.7278 324.646 60.8605C320.675 64.8206 318.063 69.5754 316.864 75.125C316.289 77.7096 316.31 83.1072 316.864 85.7404C318.063 91.3106 320.613 95.9826 324.646 100.005C329.061 104.428 334.535 107.303 340.682 108.429L342.629 108.782L343.828 114.338C344.472 117.407 345.2 120.752 345.45 121.788C345.671 122.825 346.78 128.271 347.91 133.883C349.039 139.501 350.106 144.277 350.279 144.477C350.46 144.678 350.903 144.989 351.298 145.141C351.922 145.41 352.546 145.383 356.066 144.899C361.499 144.194 366.869 143.703 373.765 143.33C377.354 143.13 391.041 143.13 394.609 143.33C401.11 143.683 407.007 144.215 412.169 144.899C416.119 145.431 416.715 145.41 417.582 144.858C418.295 144.415 418.448 143.883 419.536 137.933C420.09 134.947 420.735 131.609 420.977 130.524C423.257 119.978 425.676 108.851 425.724 108.83C425.745 108.81 426.653 108.63 427.741 108.409C433.79 107.282 439.272 104.428 443.596 100.136C450.782 93.0384 453.575 83.2178 451.136 73.7082C448.454 63.2241 439.826 55.2004 428.316 52.5466C425.01 51.7725 418.295 51.7518 415.544 52.4774C415.122 52.588 414.921 52.3047 413.812 50.0654C410.201 42.7467 404.276 37.3768 396.474 34.3014C391.616 32.4008 385.587 31.6475 380.195 32.2419ZM389.62 41.1364C391.262 41.5096 394.367 42.5463 395.981 43.2788C400.022 45.1172 404.387 49.0703 406.875 53.1893C408.711 56.1956 410.091 60.1764 410.485 63.5144C410.666 65.173 411.061 65.9471 411.976 66.5C413.237 67.274 414.969 66.9837 415.988 65.8572C416.494 65.3043 416.785 62.45 416.563 60.0451L416.452 58.5384L417.207 58.4072C418.268 58.2067 422.46 58.4693 424.394 58.8702C433.104 60.6808 439.937 66.4308 442.487 74.1298C444.081 78.9538 443.818 84.524 441.773 89.0991C440.734 91.4212 438.586 94.4552 436.673 96.2866C433.125 99.6937 429.404 101.643 424.103 102.921C421.351 103.585 421.109 103.695 420.686 104.518C420.485 104.87 419.446 109.314 418.337 114.4C415.031 129.619 415.475 127.981 414.81 127.87C414.498 127.801 412.883 127.67 411.241 127.538C396.273 126.412 382.344 126.212 367.888 126.875C363.01 127.117 354.562 127.69 353.544 127.87C353.051 127.96 352.899 127.87 352.809 127.469C352.74 127.207 352.164 124.484 351.499 121.457C347.577 103.433 347.84 104.407 346.822 103.744C346.53 103.564 345.623 103.253 344.784 103.08C334.535 100.979 326.975 93.7918 325.069 84.3927C324.577 81.96 324.736 77.7374 325.422 75.2355C328.014 65.7466 337.106 58.9393 347.951 58.3865C349.413 58.3173 350.903 58.3173 351.236 58.4072L351.811 58.5384L351.679 60.9297C351.589 62.2567 351.589 63.8047 351.679 64.3576C352.234 68.0274 357.175 68.0066 357.687 64.3298C357.778 63.7562 357.979 62.5399 358.152 61.6346C360.217 51.1091 368.754 42.8572 379.572 40.9567C381.879 40.5559 387.423 40.6457 389.62 41.1364ZM400.153 131.851C407.492 132.445 414.879 133.288 415.163 133.599C415.302 133.71 414.165 140.165 413.992 140.345C413.943 140.386 412.35 140.255 410.423 140.054C399.821 138.969 394.124 138.727 380.972 138.886C369.905 139.018 365.802 139.218 357.84 140.054C355.983 140.255 354.382 140.345 354.32 140.275C354.139 140.124 352.85 133.71 352.989 133.599C353.121 133.468 358.817 132.694 361.79 132.425C363.19 132.293 365.248 132.072 366.336 131.941C372.032 131.257 392.281 131.208 400.153 131.851Z" />
                <path d="M382.898 83.7866C382.06 83.9456 380.487 85.625 380.306 86.5096C380.237 86.9312 380.348 94.0702 380.57 102.363C380.972 116.828 381.013 117.492 381.436 118.065C382.787 119.904 385.698 119.883 386.848 118.024C387.292 117.319 387.312 116.628 387.714 102.17C387.936 93.3653 388.026 86.7721 387.915 86.3783C387.382 84.3879 385.317 83.3236 382.898 83.7866Z" />
                <path d="M358.644 89.8731C358.173 90.1841 357.597 90.8683 357.355 91.3798C356.78 92.5754 356.911 93.5499 357.819 94.8076C358.866 96.2244 360.196 98.9682 361.014 101.422C361.831 103.785 362.012 104.608 363.675 113.696C364.25 116.743 364.784 119.376 364.894 119.598C365.005 119.798 365.407 120.24 365.802 120.551C366.599 121.236 368.262 121.346 369.35 120.793C370.175 120.351 370.882 119.245 370.882 118.361C370.882 116.743 368.623 102.679 367.999 100.516C366.377 94.7385 364.028 90.3846 362.081 89.5898C360.944 89.099 359.593 89.2096 358.644 89.8731Z" />
                <path d="M406.009 89.6797C404.9 90.3846 403.771 91.8635 402.724 94.0129C400.666 98.2769 399.841 101.373 398.712 108.962C398.289 111.947 397.825 114.974 397.714 115.707C397.603 116.439 397.492 117.566 397.492 118.229C397.492 119.335 397.562 119.487 398.379 120.282C399.197 121.035 399.398 121.125 400.444 121.125C401.796 121.125 402.856 120.572 403.327 119.646C403.5 119.314 404.166 116.239 404.789 112.832C406.293 104.608 406.515 103.695 407.402 101.131C408.268 98.6572 409.134 96.8394 410.285 95.1187C411.684 93.0177 411.483 91.1379 409.758 89.9423C408.711 89.2374 406.937 89.0991 406.009 89.6797Z" />
            </mask>
            <path d="M380.195 32.2419C372.746 33.0643 365.712 36.4438 360.459 41.7307C357.486 44.7163 355.068 48.2755 353.737 51.662C353.405 52.4567 353.273 52.588 352.85 52.4981C349.815 51.7518 343.384 51.7725 340.058 52.5466C333.981 53.9356 328.839 56.7278 324.646 60.8605C320.675 64.8206 318.063 69.5754 316.864 75.125C316.289 77.7096 316.31 83.1072 316.864 85.7404C318.063 91.3106 320.613 95.9826 324.646 100.005C329.061 104.428 334.535 107.303 340.682 108.429L342.629 108.782L343.828 114.338C344.472 117.407 345.2 120.752 345.45 121.788C345.671 122.825 346.78 128.271 347.91 133.883C349.039 139.501 350.106 144.277 350.279 144.477C350.46 144.678 350.903 144.989 351.298 145.141C351.922 145.41 352.546 145.383 356.066 144.899C361.499 144.194 366.869 143.703 373.765 143.33C377.354 143.13 391.041 143.13 394.609 143.33C401.11 143.683 407.007 144.215 412.169 144.899C416.119 145.431 416.715 145.41 417.582 144.858C418.295 144.415 418.448 143.883 419.536 137.933C420.09 134.947 420.735 131.609 420.977 130.524C423.257 119.978 425.676 108.851 425.724 108.83C425.745 108.81 426.653 108.63 427.741 108.409C433.79 107.282 439.272 104.428 443.596 100.136C450.782 93.0384 453.575 83.2178 451.136 73.7082C448.454 63.2241 439.826 55.2004 428.316 52.5466C425.01 51.7725 418.295 51.7518 415.544 52.4774C415.122 52.588 414.921 52.3047 413.812 50.0654C410.201 42.7467 404.276 37.3768 396.474 34.3014C391.616 32.4008 385.587 31.6475 380.195 32.2419ZM389.62 41.1364C391.262 41.5096 394.367 42.5463 395.981 43.2788C400.022 45.1172 404.387 49.0703 406.875 53.1893C408.711 56.1956 410.091 60.1764 410.485 63.5144C410.666 65.173 411.061 65.9471 411.976 66.5C413.237 67.274 414.969 66.9837 415.988 65.8572C416.494 65.3043 416.785 62.45 416.563 60.0451L416.452 58.5384L417.207 58.4072C418.268 58.2067 422.46 58.4693 424.394 58.8702C433.104 60.6808 439.937 66.4308 442.487 74.1298C444.081 78.9538 443.818 84.524 441.773 89.0991C440.734 91.4212 438.586 94.4552 436.673 96.2866C433.125 99.6937 429.404 101.643 424.103 102.921C421.351 103.585 421.109 103.695 420.686 104.518C420.485 104.87 419.446 109.314 418.337 114.4C415.031 129.619 415.475 127.981 414.81 127.87C414.498 127.801 412.883 127.67 411.241 127.538C396.273 126.412 382.344 126.212 367.888 126.875C363.01 127.117 354.562 127.69 353.544 127.87C353.051 127.96 352.899 127.87 352.809 127.469C352.74 127.207 352.164 124.484 351.499 121.457C347.577 103.433 347.84 104.407 346.822 103.744C346.53 103.564 345.623 103.253 344.784 103.08C334.535 100.979 326.975 93.7918 325.069 84.3927C324.577 81.96 324.736 77.7374 325.422 75.2355C328.014 65.7466 337.106 58.9393 347.951 58.3865C349.413 58.3173 350.903 58.3173 351.236 58.4072L351.811 58.5384L351.679 60.9297C351.589 62.2567 351.589 63.8047 351.679 64.3576C352.234 68.0274 357.175 68.0066 357.687 64.3298C357.778 63.7562 357.979 62.5399 358.152 61.6346C360.217 51.1091 368.754 42.8572 379.572 40.9567C381.879 40.5559 387.423 40.6457 389.62 41.1364ZM400.153 131.851C407.492 132.445 414.879 133.288 415.163 133.599C415.302 133.71 414.165 140.165 413.992 140.345C413.943 140.386 412.35 140.255 410.423 140.054C399.821 138.969 394.124 138.727 380.972 138.886C369.905 139.018 365.802 139.218 357.84 140.054C355.983 140.255 354.382 140.345 354.32 140.275C354.139 140.124 352.85 133.71 352.989 133.599C353.121 133.468 358.817 132.694 361.79 132.425C363.19 132.293 365.248 132.072 366.336 131.941C372.032 131.257 392.281 131.208 400.153 131.851Z" />
            <path d="M382.898 83.7866C382.06 83.9456 380.487 85.625 380.306 86.5096C380.237 86.9312 380.348 94.0702 380.57 102.363C380.972 116.828 381.013 117.492 381.436 118.065C382.787 119.904 385.698 119.883 386.848 118.024C387.292 117.319 387.312 116.628 387.714 102.17C387.936 93.3653 388.026 86.7721 387.915 86.3783C387.382 84.3879 385.317 83.3236 382.898 83.7866Z" />
            <path d="M358.644 89.8731C358.173 90.1841 357.597 90.8683 357.355 91.3798C356.78 92.5754 356.911 93.5499 357.819 94.8076C358.866 96.2244 360.196 98.9682 361.014 101.422C361.831 103.785 362.012 104.608 363.675 113.696C364.25 116.743 364.784 119.376 364.894 119.598C365.005 119.798 365.407 120.24 365.802 120.551C366.599 121.236 368.262 121.346 369.35 120.793C370.175 120.351 370.882 119.245 370.882 118.361C370.882 116.743 368.623 102.679 367.999 100.516C366.377 94.7385 364.028 90.3846 362.081 89.5898C360.944 89.099 359.593 89.2096 358.644 89.8731Z" />
            <path d="M406.009 89.6797C404.9 90.3846 403.771 91.8635 402.724 94.0129C400.666 98.2769 399.841 101.373 398.712 108.962C398.289 111.947 397.825 114.974 397.714 115.707C397.603 116.439 397.492 117.566 397.492 118.229C397.492 119.335 397.562 119.487 398.379 120.282C399.197 121.035 399.398 121.125 400.444 121.125C401.796 121.125 402.856 120.572 403.327 119.646C403.5 119.314 404.166 116.239 404.789 112.832C406.293 104.608 406.515 103.695 407.402 101.131C408.268 98.6572 409.134 96.8394 410.285 95.1187C411.684 93.0177 411.483 91.1379 409.758 89.9423C408.711 89.2374 406.937 89.0991 406.009 89.6797Z" />
            <path d="M380.195 32.2419C372.746 33.0643 365.712 36.4438 360.459 41.7307C357.486 44.7163 355.068 48.2755 353.737 51.662C353.405 52.4567 353.273 52.588 352.85 52.4981C349.815 51.7518 343.384 51.7725 340.058 52.5466C333.981 53.9356 328.839 56.7278 324.646 60.8605C320.675 64.8206 318.063 69.5754 316.864 75.125C316.289 77.7096 316.31 83.1072 316.864 85.7404C318.063 91.3106 320.613 95.9826 324.646 100.005C329.061 104.428 334.535 107.303 340.682 108.429L342.629 108.782L343.828 114.338C344.472 117.407 345.2 120.752 345.45 121.788C345.671 122.825 346.78 128.271 347.91 133.883C349.039 139.501 350.106 144.277 350.279 144.477C350.46 144.678 350.903 144.989 351.298 145.141C351.922 145.41 352.546 145.383 356.066 144.899C361.499 144.194 366.869 143.703 373.765 143.33C377.354 143.13 391.041 143.13 394.609 143.33C401.11 143.683 407.007 144.215 412.169 144.899C416.119 145.431 416.715 145.41 417.582 144.858C418.295 144.415 418.448 143.883 419.536 137.933C420.09 134.947 420.735 131.609 420.977 130.524C423.257 119.978 425.676 108.851 425.724 108.83C425.745 108.81 426.653 108.63 427.741 108.409C433.79 107.282 439.272 104.428 443.596 100.136C450.782 93.0384 453.575 83.2178 451.136 73.7082C448.454 63.2241 439.826 55.2004 428.316 52.5466C425.01 51.7725 418.295 51.7518 415.544 52.4774C415.122 52.588 414.921 52.3047 413.812 50.0654C410.201 42.7467 404.276 37.3768 396.474 34.3014C391.616 32.4008 385.587 31.6475 380.195 32.2419ZM389.62 41.1364C391.262 41.5096 394.367 42.5463 395.981 43.2788C400.022 45.1172 404.387 49.0703 406.875 53.1893C408.711 56.1956 410.091 60.1764 410.485 63.5144C410.666 65.173 411.061 65.9471 411.976 66.5C413.237 67.274 414.969 66.9837 415.988 65.8572C416.494 65.3043 416.785 62.45 416.563 60.0451L416.452 58.5384L417.207 58.4072C418.268 58.2067 422.46 58.4693 424.394 58.8702C433.104 60.6808 439.937 66.4308 442.487 74.1298C444.081 78.9538 443.818 84.524 441.773 89.0991C440.734 91.4212 438.586 94.4552 436.673 96.2866C433.125 99.6937 429.404 101.643 424.103 102.921C421.351 103.585 421.109 103.695 420.686 104.518C420.485 104.87 419.446 109.314 418.337 114.4C415.031 129.619 415.475 127.981 414.81 127.87C414.498 127.801 412.883 127.67 411.241 127.538C396.273 126.412 382.344 126.212 367.888 126.875C363.01 127.117 354.562 127.69 353.544 127.87C353.051 127.96 352.899 127.87 352.809 127.469C352.74 127.207 352.164 124.484 351.499 121.457C347.577 103.433 347.84 104.407 346.822 103.744C346.53 103.564 345.623 103.253 344.784 103.08C334.535 100.979 326.975 93.7918 325.069 84.3927C324.577 81.96 324.736 77.7374 325.422 75.2355C328.014 65.7466 337.106 58.9393 347.951 58.3865C349.413 58.3173 350.903 58.3173 351.236 58.4072L351.811 58.5384L351.679 60.9297C351.589 62.2567 351.589 63.8047 351.679 64.3576C352.234 68.0274 357.175 68.0066 357.687 64.3298C357.778 63.7562 357.979 62.5399 358.152 61.6346C360.217 51.1091 368.754 42.8572 379.572 40.9567C381.879 40.5559 387.423 40.6457 389.62 41.1364ZM400.153 131.851C407.492 132.445 414.879 133.288 415.163 133.599C415.302 133.71 414.165 140.165 413.992 140.345C413.943 140.386 412.35 140.255 410.423 140.054C399.821 138.969 394.124 138.727 380.972 138.886C369.905 139.018 365.802 139.218 357.84 140.054C355.983 140.255 354.382 140.345 354.32 140.275C354.139 140.124 352.85 133.71 352.989 133.599C353.121 133.468 358.817 132.694 361.79 132.425C363.19 132.293 365.248 132.072 366.336 131.941C372.032 131.257 392.281 131.208 400.153 131.851Z" stroke="#F7C553" stroke-width="6" mask="url(#path-2-inside-1_9_3)"/>
            <path d="M382.898 83.7866C382.06 83.9456 380.487 85.625 380.306 86.5096C380.237 86.9312 380.348 94.0702 380.57 102.363C380.972 116.828 381.013 117.492 381.436 118.065C382.787 119.904 385.698 119.883 386.848 118.024C387.292 117.319 387.312 116.628 387.714 102.17C387.936 93.3653 388.026 86.7721 387.915 86.3783C387.382 84.3879 385.317 83.3236 382.898 83.7866Z" stroke="#F7C553" stroke-width="6" mask="url(#path-2-inside-1_9_3)"/>
            <path d="M358.644 89.8731C358.173 90.1841 357.597 90.8683 357.355 91.3798C356.78 92.5754 356.911 93.5499 357.819 94.8076C358.866 96.2244 360.196 98.9682 361.014 101.422C361.831 103.785 362.012 104.608 363.675 113.696C364.25 116.743 364.784 119.376 364.894 119.598C365.005 119.798 365.407 120.24 365.802 120.551C366.599 121.236 368.262 121.346 369.35 120.793C370.175 120.351 370.882 119.245 370.882 118.361C370.882 116.743 368.623 102.679 367.999 100.516C366.377 94.7385 364.028 90.3846 362.081 89.5898C360.944 89.099 359.593 89.2096 358.644 89.8731Z" stroke="#F7C553" stroke-width="6" mask="url(#path-2-inside-1_9_3)"/>
            <path d="M406.009 89.6797C404.9 90.3846 403.771 91.8635 402.724 94.0129C400.666 98.2769 399.841 101.373 398.712 108.962C398.289 111.947 397.825 114.974 397.714 115.707C397.603 116.439 397.492 117.566 397.492 118.229C397.492 119.335 397.562 119.487 398.379 120.282C399.197 121.035 399.398 121.125 400.444 121.125C401.796 121.125 402.856 120.572 403.327 119.646C403.5 119.314 404.166 116.239 404.789 112.832C406.293 104.608 406.515 103.695 407.402 101.131C408.268 98.6572 409.134 96.8394 410.285 95.1187C411.684 93.0177 411.483 91.1379 409.758 89.9423C408.711 89.2374 406.937 89.0991 406.009 89.6797Z" stroke="#F7C553" stroke-width="6" mask="url(#path-2-inside-1_9_3)"/>
        </g><!-- #chef_hat -->
        <g id="restourant_name">
            <mask id="path-3-inside-2_9_3" fill="white">
                <path d="M194.188 314.788C191.129 314.788 187.699 314.168 183.896 312.928C180.093 311.688 176.167 310.2 172.116 308.464C168.148 306.728 164.263 305.075 160.46 303.504C158.393 305.736 156.161 307.472 153.764 308.712C151.367 309.952 148.804 310.572 146.076 310.572C143.183 310.572 140.703 309.911 138.636 308.588C136.487 307.348 134.875 305.819 133.8 304C132.643 302.181 132.064 300.528 132.064 299.04C132.064 297.387 132.808 295.94 134.296 294.7C135.784 293.46 138.429 292.84 142.232 292.84C144.464 292.84 146.903 293.088 149.548 293.584C152.276 293.997 155.045 294.576 157.856 295.32C159.757 292.013 161.493 288.128 163.064 283.664C164.717 279.2 166.329 274.529 167.9 269.652C169.471 264.692 171.041 259.856 172.612 255.144C168.479 253.739 165.296 251.796 163.064 249.316C160.832 246.753 159.716 244.191 159.716 241.628C159.716 239.975 160.129 238.363 160.956 236.792C161.783 235.139 162.981 233.775 164.552 232.7C166.123 231.543 167.983 230.964 170.132 230.964C169.057 232.287 168.355 233.775 168.024 235.428C167.776 237.081 167.652 238.404 167.652 239.396C167.652 242.124 168.272 244.439 169.512 246.34C170.752 248.241 172.281 249.729 174.1 250.804C175.671 246.092 177.324 241.587 179.06 237.288C180.879 232.907 182.863 229.063 185.012 225.756C187.244 222.367 189.683 219.68 192.328 217.696C195.056 215.712 198.115 214.72 201.504 214.72C203.405 214.72 205.389 215.133 207.456 215.96C209.605 216.704 211.424 218.027 212.912 219.928C214.483 221.829 215.268 224.557 215.268 228.112C215.268 230.923 214.648 233.94 213.408 237.164C212.251 240.388 210.391 243.488 207.828 246.464C205.265 249.357 201.959 251.796 197.908 253.78C193.94 255.681 189.104 256.715 183.4 256.88H182.284C179.969 264.072 177.407 271.305 174.596 278.58C171.785 285.855 168.685 292.096 165.296 297.304C168.52 298.213 172.075 299.247 175.96 300.404C179.928 301.561 183.855 302.553 187.74 303.38C191.708 304.124 195.18 304.496 198.156 304.496C200.14 304.496 201.959 304.289 203.612 303.876C205.348 303.38 207.167 302.677 209.068 301.768C207.415 306.397 205.348 309.704 202.868 311.688C200.471 313.755 197.577 314.788 194.188 314.788ZM183.648 252.788C187.285 252.54 190.509 251.383 193.32 249.316C196.131 247.249 198.528 244.769 200.512 241.876C202.496 238.983 203.984 236.048 204.976 233.072C206.051 230.013 206.588 227.368 206.588 225.136C206.588 222.987 206.175 221.54 205.348 220.796C204.521 219.969 203.571 219.556 202.496 219.556C200.099 219.556 197.825 221.085 195.676 224.144C193.527 227.203 191.46 231.253 189.476 236.296C187.575 241.256 185.632 246.753 183.648 252.788ZM144.836 305.984C146.985 305.984 148.721 305.488 150.044 304.496C151.367 303.587 152.689 302.429 154.012 301.024C151.449 300.115 149.052 299.371 146.82 298.792C144.588 298.131 142.645 297.8 140.992 297.8C139.421 297.8 138.305 298.089 137.644 298.668C136.9 299.247 136.528 299.949 136.528 300.776C136.528 302.099 137.355 303.297 139.008 304.372C140.661 305.447 142.604 305.984 144.836 305.984Z"/>
                <path d="M222.628 309.828C219.9 309.828 217.544 308.919 215.56 307.1C213.493 305.281 212.46 302.553 212.46 298.916C212.46 296.023 213.121 292.881 214.444 289.492C215.766 286.103 217.585 282.755 219.9 279.448C222.214 276.141 224.86 273.165 227.836 270.52C230.812 267.792 233.994 265.601 237.384 263.948C240.773 262.295 244.162 261.468 247.552 261.468C251.106 261.468 254.124 262.377 256.604 264.196C259.084 266.015 260.324 268.412 260.324 271.388C260.324 273.62 259.538 275.232 257.968 276.224C256.397 277.216 254.537 277.505 252.388 277.092C252.553 276.348 252.677 275.604 252.76 274.86C252.925 274.116 253.008 273.331 253.008 272.504C253.008 270.851 252.677 269.363 252.016 268.04C251.354 266.717 249.949 266.056 247.8 266.056C245.485 266.056 243.129 266.841 240.732 268.412C238.334 269.983 236.02 272.049 233.788 274.612C231.638 277.092 229.696 279.861 227.96 282.92C226.224 285.896 224.86 288.831 223.868 291.724C222.876 294.617 222.38 297.221 222.38 299.536C222.38 302.181 223.33 303.504 225.232 303.504C227.133 303.504 229.241 302.595 231.556 300.776C233.87 298.875 236.185 296.519 238.5 293.708C240.897 290.897 243.17 288.045 245.32 285.152C247.469 282.176 249.329 279.655 250.9 277.588C251.148 277.175 251.478 276.968 251.892 276.968C252.222 277.051 252.842 277.257 253.752 277.588C254.744 277.836 255.653 278.249 256.48 278.828C257.306 279.407 257.72 280.151 257.72 281.06C257.72 282.135 257.141 283.623 255.984 285.524C254.826 287.343 253.628 289.327 252.388 291.476C251.23 293.625 250.652 295.609 250.652 297.428C250.652 298.503 250.941 299.536 251.52 300.528C252.098 301.437 253.049 301.892 254.372 301.892C256.356 301.892 259.125 300.445 262.68 297.552C266.317 294.576 269.996 289.575 273.716 282.548L276.072 284.904C273.013 291.683 269.21 297.18 264.664 301.396C260.117 305.612 255.529 307.72 250.9 307.72C247.51 307.72 244.989 306.645 243.336 304.496C241.682 302.347 240.773 300.032 240.608 297.552V296.932C237.301 300.9 234.242 304.041 231.432 306.356C228.704 308.671 225.769 309.828 222.628 309.828Z"/>
                <path d="M317.5 314.788C315.02 314.788 312.664 314.127 310.432 312.804C308.283 311.481 307.208 309.787 307.208 307.72C307.208 306.645 307.374 305.488 307.704 304.248C308.118 303.008 308.49 301.851 308.82 300.776C311.383 292.923 313.78 285.607 316.012 278.828C318.244 271.967 320.476 265.395 322.708 259.112C325.023 252.747 327.42 246.381 329.9 240.016C332.463 233.651 335.315 226.996 338.456 220.052C333.744 221.127 330.024 222.491 327.296 224.144C324.568 225.715 322.75 226.5 321.84 226.5C321.427 226.5 320.807 226.211 319.98 225.632C319.236 225.053 318.575 224.392 317.996 223.648C317.418 222.904 317.128 222.243 317.128 221.664C319.443 220.672 322.13 219.639 325.188 218.564C328.33 217.489 331.719 216.58 335.356 215.836C338.994 215.092 342.631 214.72 346.268 214.72C350.154 214.72 354.122 215.257 358.172 216.332C362.223 217.324 365.943 218.853 369.332 220.92C372.804 222.904 375.574 225.425 377.64 228.484C379.79 231.46 380.864 234.973 380.864 239.024C380.864 243.405 379.872 247.167 377.888 250.308C375.904 253.449 373.259 256.095 369.952 258.244C366.728 260.393 363.215 262.129 359.412 263.452C355.61 264.775 351.807 265.767 348.004 266.428C344.284 267.089 340.936 267.544 337.96 267.792C334.984 268.04 332.752 268.164 331.264 268.164H330.52C328.206 276.348 325.932 284.532 323.7 292.716C321.468 300.817 319.402 308.175 317.5 314.788ZM331.636 264.32C336.266 263.989 340.895 263.204 345.524 261.964C350.154 260.724 354.328 259.029 358.048 256.88C361.851 254.648 364.868 251.879 367.1 248.572C369.415 245.265 370.572 241.421 370.572 237.04C370.572 232.907 369.456 229.559 367.224 226.996C365.075 224.433 362.264 222.491 358.792 221.168C355.403 219.845 351.807 219.143 348.004 219.06C345.028 224.847 342.176 231.708 339.448 239.644C336.72 247.497 334.116 255.723 331.636 264.32Z"/>
                <path d="M380.103 309.456C374.812 309.456 370.72 308.009 367.827 305.116C365.016 302.305 363.611 298.751 363.611 294.452C363.611 290.815 364.52 286.971 366.339 282.92C368.24 278.787 370.761 274.943 373.903 271.388C377.044 267.751 380.516 264.816 384.319 262.584C388.121 260.352 391.924 259.236 395.727 259.236C397.876 259.236 399.901 259.815 401.803 260.972C403.787 262.047 404.779 264.237 404.779 267.544C404.779 270.685 403.869 273.62 402.051 276.348C400.232 279.076 397.793 281.515 394.735 283.664C391.676 285.813 388.287 287.591 384.567 288.996C380.929 290.319 377.251 291.187 373.531 291.6C373.448 291.931 373.365 292.303 373.283 292.716C373.283 293.047 373.283 293.625 373.283 294.452C373.283 294.865 373.324 295.609 373.407 296.684C373.572 297.676 373.944 298.751 374.523 299.908C375.101 301.065 376.052 302.057 377.375 302.884C378.697 303.711 380.516 304.124 382.831 304.124C386.303 304.124 389.775 303.173 393.247 301.272C396.801 299.288 400.108 296.684 403.167 293.46C406.308 290.236 408.912 286.64 410.979 282.672L413.459 284.656C411.227 289.616 408.333 293.956 404.779 297.676C401.307 301.396 397.421 304.289 393.123 306.356C388.907 308.423 384.567 309.456 380.103 309.456ZM374.895 287.012C377.044 286.764 379.441 286.02 382.087 284.78C384.732 283.54 387.253 281.969 389.651 280.068C392.131 278.167 394.156 276.1 395.727 273.868C397.297 271.553 398.083 269.239 398.083 266.924C398.083 266.015 397.917 265.395 397.587 265.064C397.256 264.733 396.719 264.568 395.975 264.568C394.073 264.568 392.089 265.271 390.023 266.676C387.956 267.999 385.931 269.776 383.947 272.008C381.963 274.157 380.185 276.555 378.615 279.2C377.044 281.845 375.804 284.449 374.895 287.012Z"/>
                <path d="M419.264 309.704C415.627 309.704 412.692 308.629 410.46 306.48C408.228 304.331 407.112 301.065 407.112 296.684C407.112 293.295 407.732 289.079 408.972 284.036C410.295 278.993 411.948 273.785 413.932 268.412C413.354 268.247 412.651 268.123 411.824 268.04C411.08 267.875 410.336 267.627 409.592 267.296V263.452C410.915 263.617 411.99 263.741 412.816 263.824C413.726 263.907 414.635 263.989 415.544 264.072C417.28 259.691 419.14 255.475 421.124 251.424C423.191 247.291 425.216 243.612 427.2 240.388C429.267 237.164 431.21 234.643 433.028 232.824C434.847 230.923 436.459 229.972 437.864 229.972C438.691 229.972 439.476 230.303 440.22 230.964C440.964 231.543 441.336 232.411 441.336 233.568C441.336 235.221 440.468 237.577 438.732 240.636C437.079 243.695 435.012 247.291 432.532 251.424C430.052 255.475 427.655 259.815 425.34 264.444H429.184C432.822 264.444 436.087 264.403 438.98 264.32C441.956 264.155 444.974 263.907 448.032 263.576V267.668C443.486 268.081 439.311 268.412 435.508 268.66C431.706 268.908 428.068 269.073 424.596 269.156H423.108C421.372 273.207 419.843 277.381 418.52 281.68C417.28 285.896 416.66 290.029 416.66 294.08C416.66 297.469 417.198 299.867 418.272 301.272C419.347 302.677 421.042 303.38 423.356 303.38C427.49 303.38 431.706 301.52 436.004 297.8C440.386 293.997 444.188 288.872 447.412 282.424L449.148 283.664C446.999 288.541 444.312 292.964 441.088 296.932C437.947 300.9 434.516 304 430.796 306.232C427.076 308.547 423.232 309.704 419.264 309.704Z"/>
                <path d="M468.255 251.796C466.684 251.796 465.238 251.424 463.915 250.68C462.675 249.853 462.055 248.613 462.055 246.96C462.055 244.976 463.13 243.281 465.279 241.876C467.428 240.471 469.66 239.768 471.975 239.768C473.463 239.768 474.703 240.099 475.695 240.76C476.77 241.421 477.307 242.62 477.307 244.356C477.307 246.092 476.356 247.787 474.455 249.44C472.554 251.011 470.487 251.796 468.255 251.796ZM453.623 307.72C449.986 307.72 447.258 306.645 445.439 304.496C443.62 302.347 442.711 299.743 442.711 296.684C442.711 294.783 443.042 292.385 443.703 289.492C444.364 286.599 445.274 283.581 446.431 280.44C447.671 277.216 449.076 274.199 450.647 271.388C452.218 268.577 453.912 266.304 455.731 264.568C457.55 262.749 459.368 261.84 461.187 261.84C462.179 261.84 463.047 262.171 463.791 262.832C464.535 263.411 464.907 264.279 464.907 265.436C464.907 266.511 464.246 268.123 462.923 270.272C461.683 272.421 460.195 274.901 458.459 277.712C456.806 280.523 455.318 283.457 453.995 286.516C452.755 289.492 452.135 292.344 452.135 295.072C452.135 297.717 452.59 299.495 453.499 300.404C454.491 301.231 455.896 301.644 457.715 301.644C460.526 301.644 463.584 300.239 466.891 297.428C470.198 294.617 473.628 289.699 477.183 282.672L479.043 284.656C476.15 291.931 472.471 297.593 468.007 301.644C463.543 305.695 458.748 307.72 453.623 307.72Z"/>
                <path d="M485.261 309.704C481.623 309.704 478.689 308.629 476.457 306.48C474.225 304.331 473.109 301.065 473.109 296.684C473.109 293.295 473.729 289.079 474.969 284.036C476.291 278.993 477.945 273.785 479.929 268.412C479.35 268.247 478.647 268.123 477.821 268.04C477.077 267.875 476.333 267.627 475.589 267.296V263.452C476.911 263.617 477.986 263.741 478.813 263.824C479.722 263.907 480.631 263.989 481.541 264.072C483.277 259.691 485.137 255.475 487.121 251.424C489.187 247.291 491.213 243.612 493.197 240.388C495.263 237.164 497.206 234.643 499.025 232.824C500.843 230.923 502.455 229.972 503.861 229.972C504.687 229.972 505.473 230.303 506.217 230.964C506.961 231.543 507.333 232.411 507.333 233.568C507.333 235.221 506.465 237.577 504.729 240.636C503.075 243.695 501.009 247.291 498.529 251.424C496.049 255.475 493.651 259.815 491.337 264.444H495.181C498.818 264.444 502.083 264.403 504.977 264.32C507.953 264.155 510.97 263.907 514.029 263.576V267.668C509.482 268.081 505.307 268.412 501.505 268.66C497.702 268.908 494.065 269.073 490.593 269.156H489.105C487.369 273.207 485.839 277.381 484.517 281.68C483.277 285.896 482.657 290.029 482.657 294.08C482.657 297.469 483.194 299.867 484.269 301.272C485.343 302.677 487.038 303.38 489.353 303.38C493.486 303.38 497.702 301.52 502.001 297.8C506.382 293.997 510.185 288.872 513.409 282.424L515.145 283.664C512.995 288.541 510.309 292.964 507.085 296.932C503.943 300.9 500.513 304 496.793 306.232C493.073 308.547 489.229 309.704 485.261 309.704Z"/>
                <path d="M524.083 309.456C518.793 309.456 514.701 308.009 511.807 305.116C508.997 302.305 507.591 298.751 507.591 294.452C507.591 290.815 508.501 286.971 510.319 282.92C512.221 278.787 514.742 274.943 517.883 271.388C521.025 267.751 524.497 264.816 528.299 262.584C532.102 260.352 535.905 259.236 539.707 259.236C541.857 259.236 543.882 259.815 545.783 260.972C547.767 262.047 548.759 264.237 548.759 267.544C548.759 270.685 547.85 273.62 546.031 276.348C544.213 279.076 541.774 281.515 538.715 283.664C535.657 285.813 532.267 287.591 528.547 288.996C524.91 290.319 521.231 291.187 517.511 291.6C517.429 291.931 517.346 292.303 517.263 292.716C517.263 293.047 517.263 293.625 517.263 294.452C517.263 294.865 517.305 295.609 517.387 296.684C517.553 297.676 517.925 298.751 518.503 299.908C519.082 301.065 520.033 302.057 521.355 302.884C522.678 303.711 524.497 304.124 526.811 304.124C530.283 304.124 533.755 303.173 537.227 301.272C540.782 299.288 544.089 296.684 547.147 293.46C550.289 290.236 552.893 286.64 554.959 282.672L557.439 284.656C555.207 289.616 552.314 293.956 548.759 297.676C545.287 301.396 541.402 304.289 537.103 306.356C532.887 308.423 528.547 309.456 524.083 309.456ZM518.875 287.012C521.025 286.764 523.422 286.02 526.067 284.78C528.713 283.54 531.234 281.969 533.631 280.068C536.111 278.167 538.137 276.1 539.707 273.868C541.278 271.553 542.063 269.239 542.063 266.924C542.063 266.015 541.898 265.395 541.567 265.064C541.237 264.733 540.699 264.568 539.955 264.568C538.054 264.568 536.07 265.271 534.003 266.676C531.937 267.999 529.911 269.776 527.927 272.008C525.943 274.157 524.166 276.555 522.595 279.2C521.025 281.845 519.785 284.449 518.875 287.012Z"/>
                <path d="M332.055 463.788C325.772 463.788 320.605 462.3 316.555 459.324C312.587 456.348 309.652 452.504 307.751 447.792C305.932 443.08 305.023 438.203 305.023 433.16C305.023 426.629 306.015 420.099 307.999 413.568C309.983 406.955 312.711 400.672 316.183 394.72C319.737 388.768 323.747 383.477 328.211 378.848C332.675 374.219 337.428 370.581 342.471 367.936C347.596 365.208 352.68 363.844 357.723 363.844C361.36 363.844 364.419 364.712 366.899 366.448C369.379 368.101 370.619 370.995 370.619 375.128C370.619 377.608 370.164 380.377 369.255 383.436C368.428 386.495 367.271 389.471 365.783 392.364C364.377 395.175 362.765 397.489 360.947 399.308C359.128 401.127 357.268 402.036 355.367 402.036C354.54 402.036 353.672 401.747 352.763 401.168C351.853 400.589 351.027 399.597 350.283 398.192C351.523 396.787 352.928 395.092 354.499 393.108C356.069 391.041 357.557 388.892 358.963 386.66C360.368 384.345 361.525 382.113 362.435 379.964C363.344 377.732 363.799 375.789 363.799 374.136C363.799 372.648 363.385 371.491 362.559 370.664C361.732 369.755 360.285 369.3 358.219 369.3C354.581 369.3 350.82 370.664 346.935 373.392C343.132 376.12 339.453 379.799 335.899 384.428C332.344 388.975 329.12 394.1 326.227 399.804C323.416 405.425 321.184 411.253 319.531 417.288C317.877 423.24 317.051 428.903 317.051 434.276C317.051 438.244 317.629 442.047 318.787 445.684C320.027 449.239 321.969 452.132 324.615 454.364C327.26 456.679 330.732 457.836 335.031 457.836C339.495 457.836 343.917 456.596 348.299 454.116C352.763 451.636 356.813 448.371 360.451 444.32C364.171 440.269 367.147 435.929 369.379 431.3L372.603 433.408C369.709 438.947 366.237 444.031 362.187 448.66C358.136 453.207 353.548 456.844 348.423 459.572C343.38 462.383 337.924 463.788 332.055 463.788Z"/>
                <path d="M375.869 456.72C373.059 456.72 370.744 455.439 368.925 452.876C367.189 450.231 366.321 447.213 366.321 443.824C366.321 441.509 366.693 438.781 367.437 435.64C368.181 432.499 369.132 429.44 370.289 426.464C371.529 423.488 372.769 421.008 374.009 419.024C375.332 417.04 376.531 416.048 377.605 416.048C378.184 416.048 379.052 416.379 380.209 417.04C381.449 417.619 382.524 418.363 383.433 419.272C382.524 420.595 381.408 422.62 380.085 425.348C378.845 428.076 377.729 431.011 376.737 434.152C375.745 437.293 375.249 440.145 375.249 442.708C375.249 443.039 375.291 443.824 375.373 445.064C375.539 446.304 375.869 447.461 376.365 448.536C376.861 449.611 377.729 450.148 378.969 450.148C380.375 450.148 381.863 449.404 383.433 447.916C385.087 446.345 386.74 444.361 388.393 441.964C390.129 439.484 391.783 436.839 393.353 434.028C395.007 431.217 396.453 428.489 397.693 425.844C399.016 423.199 400.091 420.967 400.917 419.148C401.661 419.231 402.612 419.437 403.769 419.768C405.009 420.099 406.084 420.553 406.993 421.132C407.903 421.628 408.357 422.372 408.357 423.364C408.357 423.612 407.944 424.645 407.117 426.464C406.373 428.2 405.464 430.308 404.389 432.788C403.397 435.268 402.488 437.831 401.661 440.476C400.917 443.039 400.545 445.312 400.545 447.296C400.545 448.453 400.752 449.487 401.165 450.396C401.661 451.223 402.571 451.636 403.893 451.636C405.629 451.636 407.696 450.851 410.093 449.28C412.491 447.709 414.971 445.436 417.533 442.46C420.096 439.484 422.369 435.929 424.353 431.796L426.213 433.284C424.395 437.748 422.039 441.757 419.145 445.312C416.252 448.867 413.152 451.636 409.845 453.62C406.539 455.687 403.315 456.72 400.173 456.72C397.776 456.72 395.957 456.141 394.717 454.984C393.56 453.909 392.775 452.504 392.361 450.768C391.948 448.949 391.7 447.131 391.617 445.312V442.832C390.212 445.064 388.683 447.255 387.029 449.404C385.376 451.471 383.599 453.207 381.697 454.612C379.879 456.017 377.936 456.72 375.869 456.72Z"/>
                <path d="M445.732 400.796C444.161 400.796 442.714 400.424 441.392 399.68C440.152 398.853 439.532 397.613 439.532 395.96C439.532 393.976 440.606 392.281 442.756 390.876C444.905 389.471 447.137 388.768 449.452 388.768C450.94 388.768 452.18 389.099 453.172 389.76C454.246 390.421 454.784 391.62 454.784 393.356C454.784 395.092 453.833 396.787 451.932 398.44C450.03 400.011 447.964 400.796 445.732 400.796ZM431.1 456.72C427.462 456.72 424.734 455.645 422.916 453.496C421.097 451.347 420.188 448.743 420.188 445.684C420.188 443.783 420.518 441.385 421.18 438.492C421.841 435.599 422.75 432.581 423.908 429.44C425.148 426.216 426.553 423.199 428.124 420.388C429.694 417.577 431.389 415.304 433.208 413.568C435.026 411.749 436.845 410.84 438.664 410.84C439.656 410.84 440.524 411.171 441.268 411.832C442.012 412.411 442.384 413.279 442.384 414.436C442.384 415.511 441.722 417.123 440.4 419.272C439.16 421.421 437.672 423.901 435.936 426.712C434.282 429.523 432.794 432.457 431.472 435.516C430.232 438.492 429.612 441.344 429.612 444.072C429.612 446.717 430.066 448.495 430.976 449.404C431.968 450.231 433.373 450.644 435.192 450.644C438.002 450.644 441.061 449.239 444.368 446.428C447.674 443.617 451.105 438.699 454.66 431.672L456.52 433.656C453.626 440.931 449.948 446.593 445.484 450.644C441.02 454.695 436.225 456.72 431.1 456.72Z"/>
                <path d="M465.961 459.324C461.828 459.324 458.48 458.456 455.917 456.72C453.437 455.067 451.66 452.959 450.585 450.396C449.51 447.751 448.973 445.064 448.973 442.336C448.973 439.939 449.304 438.079 449.965 436.756C450.626 435.433 451.453 434.483 452.445 433.904C453.437 433.243 454.346 432.747 455.173 432.416C456.082 432.085 456.744 431.713 457.157 431.3C459.224 429.151 461.332 426.671 463.481 423.86C465.713 420.967 467.614 417.784 469.185 414.312V413.072C469.185 409.765 469.722 407.451 470.797 406.128C471.954 404.723 473.277 404.02 474.765 404.02C475.757 404.02 476.46 404.268 476.873 404.764C477.369 405.26 477.658 405.839 477.741 406.5C477.741 406.996 477.617 407.575 477.369 408.236C477.204 408.897 477.121 409.807 477.121 410.964C477.121 413.444 477.7 416.296 478.857 419.52C480.097 422.661 481.296 426.009 482.453 429.564C483.693 433.119 484.313 436.756 484.313 440.476C484.313 441.468 484.272 442.377 484.189 443.204C484.106 444.031 483.982 444.816 483.817 445.56C486.38 444.899 488.901 443.493 491.381 441.344C493.861 439.112 496.217 435.847 498.449 431.548L499.937 432.664C498.366 437.376 496.093 441.179 493.117 444.072C490.141 446.883 486.669 448.619 482.701 449.28C481.378 452.669 479.188 455.191 476.129 456.844C473.153 458.497 469.764 459.324 465.961 459.324ZM474.021 445.312C474.186 444.733 474.269 444.072 474.269 443.328C474.352 442.501 474.393 441.881 474.393 441.468C474.31 437.748 473.814 434.069 472.905 430.432C471.996 426.795 471.086 423.075 470.177 419.272C468.689 421.835 466.953 424.604 464.969 427.58C462.985 430.556 461.125 432.953 459.389 434.772C460.712 437.004 462.654 439.112 465.217 441.096C467.78 443.08 470.714 444.485 474.021 445.312ZM465.093 453.868C466.746 453.868 468.276 453.455 469.681 452.628C471.086 451.801 472.202 450.603 473.029 449.032C469.64 448.288 466.581 446.965 463.853 445.064C461.125 443.163 459.017 441.22 457.529 439.236C456.372 439.484 455.793 440.6 455.793 442.584C455.793 445.312 456.578 447.875 458.149 450.272C459.72 452.669 462.034 453.868 465.093 453.868Z"/>
                <path d="M519.478 400.796C517.907 400.796 516.46 400.424 515.138 399.68C513.898 398.853 513.278 397.613 513.278 395.96C513.278 393.976 514.352 392.281 516.502 390.876C518.651 389.471 520.883 388.768 523.198 388.768C524.686 388.768 525.926 389.099 526.918 389.76C527.992 390.421 528.53 391.62 528.53 393.356C528.53 395.092 527.579 396.787 525.678 398.44C523.776 400.011 521.71 400.796 519.478 400.796ZM504.846 456.72C501.208 456.72 498.48 455.645 496.662 453.496C494.843 451.347 493.934 448.743 493.934 445.684C493.934 443.783 494.264 441.385 494.926 438.492C495.587 435.599 496.496 432.581 497.654 429.44C498.894 426.216 500.299 423.199 501.87 420.388C503.44 417.577 505.135 415.304 506.954 413.568C508.772 411.749 510.591 410.84 512.41 410.84C513.402 410.84 514.27 411.171 515.014 411.832C515.758 412.411 516.13 413.279 516.13 414.436C516.13 415.511 515.468 417.123 514.146 419.272C512.906 421.421 511.418 423.901 509.682 426.712C508.028 429.523 506.54 432.457 505.218 435.516C503.978 438.492 503.358 441.344 503.358 444.072C503.358 446.717 503.812 448.495 504.722 449.404C505.714 450.231 507.119 450.644 508.938 450.644C511.748 450.644 514.807 449.239 518.114 446.428C521.42 443.617 524.851 438.699 528.406 431.672L530.266 433.656C527.372 440.931 523.694 446.593 519.23 450.644C514.766 454.695 509.971 456.72 504.846 456.72Z"/>
                <path d="M566.987 455.48C563.763 455.48 561.283 454.653 559.547 453C557.894 451.429 557.067 449.404 557.067 446.924C557.067 445.271 557.357 443.535 557.935 441.716C558.514 439.815 559.093 437.913 559.671 436.012C560.25 434.111 560.539 432.292 560.539 430.556C560.539 428.737 560.085 427.497 559.175 426.836C558.349 426.092 557.357 425.72 556.199 425.72C553.719 425.72 551.157 426.753 548.511 428.82C545.949 430.804 543.427 433.325 540.947 436.384C538.55 439.443 536.277 442.625 534.127 445.932C531.978 449.239 530.118 452.215 528.547 454.86C526.977 454.86 525.489 454.571 524.083 453.992C522.678 453.496 521.479 452.587 520.487 451.264C520.57 450.851 521.066 449.611 521.975 447.544C522.802 445.395 523.753 442.873 524.827 439.98C525.902 437.004 526.853 433.904 527.679 430.68C528.506 427.456 528.919 424.521 528.919 421.876C529.498 421.215 530.366 420.553 531.523 419.892C532.763 419.231 534.045 418.9 535.367 418.9C538.261 418.9 539.707 420.14 539.707 422.62C539.707 424.852 539.005 428.531 537.599 433.656C539.749 430.763 542.105 428.035 544.667 425.472C547.23 422.909 549.875 420.843 552.603 419.272C555.414 417.619 558.225 416.792 561.035 416.792C564.59 416.792 567.194 417.991 568.847 420.388C570.583 422.785 571.451 425.431 571.451 428.324C571.451 430.804 571.038 433.119 570.211 435.268C569.385 437.417 568.558 439.443 567.731 441.344C566.987 443.245 566.615 445.105 566.615 446.924C566.615 448.247 566.905 449.197 567.483 449.776C568.145 450.272 568.847 450.52 569.591 450.52C571.575 450.52 573.642 449.569 575.791 447.668C577.941 445.767 579.966 443.369 581.867 440.476C583.851 437.5 585.587 434.524 587.075 431.548L589.183 433.284C587.447 437.335 585.463 441.055 583.231 444.444C581.082 447.751 578.643 450.437 575.915 452.504C573.27 454.488 570.294 455.48 566.987 455.48Z"/>
                <path d="M598.193 458.456C592.902 458.456 588.81 457.009 585.917 454.116C583.106 451.305 581.701 447.751 581.701 443.452C581.701 439.815 582.61 435.971 584.429 431.92C586.33 427.787 588.851 423.943 591.993 420.388C595.134 416.751 598.606 413.816 602.409 411.584C606.211 409.352 610.014 408.236 613.817 408.236C615.966 408.236 617.991 408.815 619.893 409.972C621.877 411.047 622.869 413.237 622.869 416.544C622.869 419.685 621.959 422.62 620.141 425.348C618.322 428.076 615.883 430.515 612.825 432.664C609.766 434.813 606.377 436.591 602.657 437.996C599.019 439.319 595.341 440.187 591.621 440.6C591.538 440.931 591.455 441.303 591.373 441.716C591.373 442.047 591.373 442.625 591.373 443.452C591.373 443.865 591.414 444.609 591.497 445.684C591.662 446.676 592.034 447.751 592.613 448.908C593.191 450.065 594.142 451.057 595.465 451.884C596.787 452.711 598.606 453.124 600.921 453.124C604.393 453.124 607.865 452.173 611.337 450.272C614.891 448.288 618.198 445.684 621.257 442.46C624.398 439.236 627.002 435.64 629.069 431.672L631.549 433.656C629.317 438.616 626.423 442.956 622.869 446.676C619.397 450.396 615.511 453.289 611.213 455.356C606.997 457.423 602.657 458.456 598.193 458.456ZM592.985 436.012C595.134 435.764 597.531 435.02 600.177 433.78C602.822 432.54 605.343 430.969 607.741 429.068C610.221 427.167 612.246 425.1 613.817 422.868C615.387 420.553 616.173 418.239 616.173 415.924C616.173 415.015 616.007 414.395 615.677 414.064C615.346 413.733 614.809 413.568 614.065 413.568C612.163 413.568 610.179 414.271 608.113 415.676C606.046 416.999 604.021 418.776 602.037 421.008C600.053 423.157 598.275 425.555 596.705 428.2C595.134 430.845 593.894 433.449 592.985 436.012Z"/>
            </mask>
            <path d="M194.188 314.788C191.129 314.788 187.699 314.168 183.896 312.928C180.093 311.688 176.167 310.2 172.116 308.464C168.148 306.728 164.263 305.075 160.46 303.504C158.393 305.736 156.161 307.472 153.764 308.712C151.367 309.952 148.804 310.572 146.076 310.572C143.183 310.572 140.703 309.911 138.636 308.588C136.487 307.348 134.875 305.819 133.8 304C132.643 302.181 132.064 300.528 132.064 299.04C132.064 297.387 132.808 295.94 134.296 294.7C135.784 293.46 138.429 292.84 142.232 292.84C144.464 292.84 146.903 293.088 149.548 293.584C152.276 293.997 155.045 294.576 157.856 295.32C159.757 292.013 161.493 288.128 163.064 283.664C164.717 279.2 166.329 274.529 167.9 269.652C169.471 264.692 171.041 259.856 172.612 255.144C168.479 253.739 165.296 251.796 163.064 249.316C160.832 246.753 159.716 244.191 159.716 241.628C159.716 239.975 160.129 238.363 160.956 236.792C161.783 235.139 162.981 233.775 164.552 232.7C166.123 231.543 167.983 230.964 170.132 230.964C169.057 232.287 168.355 233.775 168.024 235.428C167.776 237.081 167.652 238.404 167.652 239.396C167.652 242.124 168.272 244.439 169.512 246.34C170.752 248.241 172.281 249.729 174.1 250.804C175.671 246.092 177.324 241.587 179.06 237.288C180.879 232.907 182.863 229.063 185.012 225.756C187.244 222.367 189.683 219.68 192.328 217.696C195.056 215.712 198.115 214.72 201.504 214.72C203.405 214.72 205.389 215.133 207.456 215.96C209.605 216.704 211.424 218.027 212.912 219.928C214.483 221.829 215.268 224.557 215.268 228.112C215.268 230.923 214.648 233.94 213.408 237.164C212.251 240.388 210.391 243.488 207.828 246.464C205.265 249.357 201.959 251.796 197.908 253.78C193.94 255.681 189.104 256.715 183.4 256.88H182.284C179.969 264.072 177.407 271.305 174.596 278.58C171.785 285.855 168.685 292.096 165.296 297.304C168.52 298.213 172.075 299.247 175.96 300.404C179.928 301.561 183.855 302.553 187.74 303.38C191.708 304.124 195.18 304.496 198.156 304.496C200.14 304.496 201.959 304.289 203.612 303.876C205.348 303.38 207.167 302.677 209.068 301.768C207.415 306.397 205.348 309.704 202.868 311.688C200.471 313.755 197.577 314.788 194.188 314.788ZM183.648 252.788C187.285 252.54 190.509 251.383 193.32 249.316C196.131 247.249 198.528 244.769 200.512 241.876C202.496 238.983 203.984 236.048 204.976 233.072C206.051 230.013 206.588 227.368 206.588 225.136C206.588 222.987 206.175 221.54 205.348 220.796C204.521 219.969 203.571 219.556 202.496 219.556C200.099 219.556 197.825 221.085 195.676 224.144C193.527 227.203 191.46 231.253 189.476 236.296C187.575 241.256 185.632 246.753 183.648 252.788ZM144.836 305.984C146.985 305.984 148.721 305.488 150.044 304.496C151.367 303.587 152.689 302.429 154.012 301.024C151.449 300.115 149.052 299.371 146.82 298.792C144.588 298.131 142.645 297.8 140.992 297.8C139.421 297.8 138.305 298.089 137.644 298.668C136.9 299.247 136.528 299.949 136.528 300.776C136.528 302.099 137.355 303.297 139.008 304.372C140.661 305.447 142.604 305.984 144.836 305.984Z" stroke="#F7C553" stroke-width="6" stroke-linejoin="round" mask="url(#path-3-inside-2_9_3)"/>
            <path d="M222.628 309.828C219.9 309.828 217.544 308.919 215.56 307.1C213.493 305.281 212.46 302.553 212.46 298.916C212.46 296.023 213.121 292.881 214.444 289.492C215.766 286.103 217.585 282.755 219.9 279.448C222.214 276.141 224.86 273.165 227.836 270.52C230.812 267.792 233.994 265.601 237.384 263.948C240.773 262.295 244.162 261.468 247.552 261.468C251.106 261.468 254.124 262.377 256.604 264.196C259.084 266.015 260.324 268.412 260.324 271.388C260.324 273.62 259.538 275.232 257.968 276.224C256.397 277.216 254.537 277.505 252.388 277.092C252.553 276.348 252.677 275.604 252.76 274.86C252.925 274.116 253.008 273.331 253.008 272.504C253.008 270.851 252.677 269.363 252.016 268.04C251.354 266.717 249.949 266.056 247.8 266.056C245.485 266.056 243.129 266.841 240.732 268.412C238.334 269.983 236.02 272.049 233.788 274.612C231.638 277.092 229.696 279.861 227.96 282.92C226.224 285.896 224.86 288.831 223.868 291.724C222.876 294.617 222.38 297.221 222.38 299.536C222.38 302.181 223.33 303.504 225.232 303.504C227.133 303.504 229.241 302.595 231.556 300.776C233.87 298.875 236.185 296.519 238.5 293.708C240.897 290.897 243.17 288.045 245.32 285.152C247.469 282.176 249.329 279.655 250.9 277.588C251.148 277.175 251.478 276.968 251.892 276.968C252.222 277.051 252.842 277.257 253.752 277.588C254.744 277.836 255.653 278.249 256.48 278.828C257.306 279.407 257.72 280.151 257.72 281.06C257.72 282.135 257.141 283.623 255.984 285.524C254.826 287.343 253.628 289.327 252.388 291.476C251.23 293.625 250.652 295.609 250.652 297.428C250.652 298.503 250.941 299.536 251.52 300.528C252.098 301.437 253.049 301.892 254.372 301.892C256.356 301.892 259.125 300.445 262.68 297.552C266.317 294.576 269.996 289.575 273.716 282.548L276.072 284.904C273.013 291.683 269.21 297.18 264.664 301.396C260.117 305.612 255.529 307.72 250.9 307.72C247.51 307.72 244.989 306.645 243.336 304.496C241.682 302.347 240.773 300.032 240.608 297.552V296.932C237.301 300.9 234.242 304.041 231.432 306.356C228.704 308.671 225.769 309.828 222.628 309.828Z" stroke="#F7C553" stroke-width="6" stroke-linejoin="round" mask="url(#path-3-inside-2_9_3)"/>
            <path d="M317.5 314.788C315.02 314.788 312.664 314.127 310.432 312.804C308.283 311.481 307.208 309.787 307.208 307.72C307.208 306.645 307.374 305.488 307.704 304.248C308.118 303.008 308.49 301.851 308.82 300.776C311.383 292.923 313.78 285.607 316.012 278.828C318.244 271.967 320.476 265.395 322.708 259.112C325.023 252.747 327.42 246.381 329.9 240.016C332.463 233.651 335.315 226.996 338.456 220.052C333.744 221.127 330.024 222.491 327.296 224.144C324.568 225.715 322.75 226.5 321.84 226.5C321.427 226.5 320.807 226.211 319.98 225.632C319.236 225.053 318.575 224.392 317.996 223.648C317.418 222.904 317.128 222.243 317.128 221.664C319.443 220.672 322.13 219.639 325.188 218.564C328.33 217.489 331.719 216.58 335.356 215.836C338.994 215.092 342.631 214.72 346.268 214.72C350.154 214.72 354.122 215.257 358.172 216.332C362.223 217.324 365.943 218.853 369.332 220.92C372.804 222.904 375.574 225.425 377.64 228.484C379.79 231.46 380.864 234.973 380.864 239.024C380.864 243.405 379.872 247.167 377.888 250.308C375.904 253.449 373.259 256.095 369.952 258.244C366.728 260.393 363.215 262.129 359.412 263.452C355.61 264.775 351.807 265.767 348.004 266.428C344.284 267.089 340.936 267.544 337.96 267.792C334.984 268.04 332.752 268.164 331.264 268.164H330.52C328.206 276.348 325.932 284.532 323.7 292.716C321.468 300.817 319.402 308.175 317.5 314.788ZM331.636 264.32C336.266 263.989 340.895 263.204 345.524 261.964C350.154 260.724 354.328 259.029 358.048 256.88C361.851 254.648 364.868 251.879 367.1 248.572C369.415 245.265 370.572 241.421 370.572 237.04C370.572 232.907 369.456 229.559 367.224 226.996C365.075 224.433 362.264 222.491 358.792 221.168C355.403 219.845 351.807 219.143 348.004 219.06C345.028 224.847 342.176 231.708 339.448 239.644C336.72 247.497 334.116 255.723 331.636 264.32Z" stroke="#F7C553" stroke-width="6" stroke-linejoin="round" mask="url(#path-3-inside-2_9_3)"/>
            <path d="M380.103 309.456C374.812 309.456 370.72 308.009 367.827 305.116C365.016 302.305 363.611 298.751 363.611 294.452C363.611 290.815 364.52 286.971 366.339 282.92C368.24 278.787 370.761 274.943 373.903 271.388C377.044 267.751 380.516 264.816 384.319 262.584C388.121 260.352 391.924 259.236 395.727 259.236C397.876 259.236 399.901 259.815 401.803 260.972C403.787 262.047 404.779 264.237 404.779 267.544C404.779 270.685 403.869 273.62 402.051 276.348C400.232 279.076 397.793 281.515 394.735 283.664C391.676 285.813 388.287 287.591 384.567 288.996C380.929 290.319 377.251 291.187 373.531 291.6C373.448 291.931 373.365 292.303 373.283 292.716C373.283 293.047 373.283 293.625 373.283 294.452C373.283 294.865 373.324 295.609 373.407 296.684C373.572 297.676 373.944 298.751 374.523 299.908C375.101 301.065 376.052 302.057 377.375 302.884C378.697 303.711 380.516 304.124 382.831 304.124C386.303 304.124 389.775 303.173 393.247 301.272C396.801 299.288 400.108 296.684 403.167 293.46C406.308 290.236 408.912 286.64 410.979 282.672L413.459 284.656C411.227 289.616 408.333 293.956 404.779 297.676C401.307 301.396 397.421 304.289 393.123 306.356C388.907 308.423 384.567 309.456 380.103 309.456ZM374.895 287.012C377.044 286.764 379.441 286.02 382.087 284.78C384.732 283.54 387.253 281.969 389.651 280.068C392.131 278.167 394.156 276.1 395.727 273.868C397.297 271.553 398.083 269.239 398.083 266.924C398.083 266.015 397.917 265.395 397.587 265.064C397.256 264.733 396.719 264.568 395.975 264.568C394.073 264.568 392.089 265.271 390.023 266.676C387.956 267.999 385.931 269.776 383.947 272.008C381.963 274.157 380.185 276.555 378.615 279.2C377.044 281.845 375.804 284.449 374.895 287.012Z" stroke="#F7C553" stroke-width="6" stroke-linejoin="round" mask="url(#path-3-inside-2_9_3)"/>
            <path d="M419.264 309.704C415.627 309.704 412.692 308.629 410.46 306.48C408.228 304.331 407.112 301.065 407.112 296.684C407.112 293.295 407.732 289.079 408.972 284.036C410.295 278.993 411.948 273.785 413.932 268.412C413.354 268.247 412.651 268.123 411.824 268.04C411.08 267.875 410.336 267.627 409.592 267.296V263.452C410.915 263.617 411.99 263.741 412.816 263.824C413.726 263.907 414.635 263.989 415.544 264.072C417.28 259.691 419.14 255.475 421.124 251.424C423.191 247.291 425.216 243.612 427.2 240.388C429.267 237.164 431.21 234.643 433.028 232.824C434.847 230.923 436.459 229.972 437.864 229.972C438.691 229.972 439.476 230.303 440.22 230.964C440.964 231.543 441.336 232.411 441.336 233.568C441.336 235.221 440.468 237.577 438.732 240.636C437.079 243.695 435.012 247.291 432.532 251.424C430.052 255.475 427.655 259.815 425.34 264.444H429.184C432.822 264.444 436.087 264.403 438.98 264.32C441.956 264.155 444.974 263.907 448.032 263.576V267.668C443.486 268.081 439.311 268.412 435.508 268.66C431.706 268.908 428.068 269.073 424.596 269.156H423.108C421.372 273.207 419.843 277.381 418.52 281.68C417.28 285.896 416.66 290.029 416.66 294.08C416.66 297.469 417.198 299.867 418.272 301.272C419.347 302.677 421.042 303.38 423.356 303.38C427.49 303.38 431.706 301.52 436.004 297.8C440.386 293.997 444.188 288.872 447.412 282.424L449.148 283.664C446.999 288.541 444.312 292.964 441.088 296.932C437.947 300.9 434.516 304 430.796 306.232C427.076 308.547 423.232 309.704 419.264 309.704Z" stroke="#F7C553" stroke-width="6" stroke-linejoin="round" mask="url(#path-3-inside-2_9_3)"/>
            <path d="M468.255 251.796C466.684 251.796 465.238 251.424 463.915 250.68C462.675 249.853 462.055 248.613 462.055 246.96C462.055 244.976 463.13 243.281 465.279 241.876C467.428 240.471 469.66 239.768 471.975 239.768C473.463 239.768 474.703 240.099 475.695 240.76C476.77 241.421 477.307 242.62 477.307 244.356C477.307 246.092 476.356 247.787 474.455 249.44C472.554 251.011 470.487 251.796 468.255 251.796ZM453.623 307.72C449.986 307.72 447.258 306.645 445.439 304.496C443.62 302.347 442.711 299.743 442.711 296.684C442.711 294.783 443.042 292.385 443.703 289.492C444.364 286.599 445.274 283.581 446.431 280.44C447.671 277.216 449.076 274.199 450.647 271.388C452.218 268.577 453.912 266.304 455.731 264.568C457.55 262.749 459.368 261.84 461.187 261.84C462.179 261.84 463.047 262.171 463.791 262.832C464.535 263.411 464.907 264.279 464.907 265.436C464.907 266.511 464.246 268.123 462.923 270.272C461.683 272.421 460.195 274.901 458.459 277.712C456.806 280.523 455.318 283.457 453.995 286.516C452.755 289.492 452.135 292.344 452.135 295.072C452.135 297.717 452.59 299.495 453.499 300.404C454.491 301.231 455.896 301.644 457.715 301.644C460.526 301.644 463.584 300.239 466.891 297.428C470.198 294.617 473.628 289.699 477.183 282.672L479.043 284.656C476.15 291.931 472.471 297.593 468.007 301.644C463.543 305.695 458.748 307.72 453.623 307.72Z" stroke="#F7C553" stroke-width="6" stroke-linejoin="round" mask="url(#path-3-inside-2_9_3)"/>
            <path d="M485.261 309.704C481.623 309.704 478.689 308.629 476.457 306.48C474.225 304.331 473.109 301.065 473.109 296.684C473.109 293.295 473.729 289.079 474.969 284.036C476.291 278.993 477.945 273.785 479.929 268.412C479.35 268.247 478.647 268.123 477.821 268.04C477.077 267.875 476.333 267.627 475.589 267.296V263.452C476.911 263.617 477.986 263.741 478.813 263.824C479.722 263.907 480.631 263.989 481.541 264.072C483.277 259.691 485.137 255.475 487.121 251.424C489.187 247.291 491.213 243.612 493.197 240.388C495.263 237.164 497.206 234.643 499.025 232.824C500.843 230.923 502.455 229.972 503.861 229.972C504.687 229.972 505.473 230.303 506.217 230.964C506.961 231.543 507.333 232.411 507.333 233.568C507.333 235.221 506.465 237.577 504.729 240.636C503.075 243.695 501.009 247.291 498.529 251.424C496.049 255.475 493.651 259.815 491.337 264.444H495.181C498.818 264.444 502.083 264.403 504.977 264.32C507.953 264.155 510.97 263.907 514.029 263.576V267.668C509.482 268.081 505.307 268.412 501.505 268.66C497.702 268.908 494.065 269.073 490.593 269.156H489.105C487.369 273.207 485.839 277.381 484.517 281.68C483.277 285.896 482.657 290.029 482.657 294.08C482.657 297.469 483.194 299.867 484.269 301.272C485.343 302.677 487.038 303.38 489.353 303.38C493.486 303.38 497.702 301.52 502.001 297.8C506.382 293.997 510.185 288.872 513.409 282.424L515.145 283.664C512.995 288.541 510.309 292.964 507.085 296.932C503.943 300.9 500.513 304 496.793 306.232C493.073 308.547 489.229 309.704 485.261 309.704Z" stroke="#F7C553" stroke-width="6" stroke-linejoin="round" mask="url(#path-3-inside-2_9_3)"/>
            <path d="M524.083 309.456C518.793 309.456 514.701 308.009 511.807 305.116C508.997 302.305 507.591 298.751 507.591 294.452C507.591 290.815 508.501 286.971 510.319 282.92C512.221 278.787 514.742 274.943 517.883 271.388C521.025 267.751 524.497 264.816 528.299 262.584C532.102 260.352 535.905 259.236 539.707 259.236C541.857 259.236 543.882 259.815 545.783 260.972C547.767 262.047 548.759 264.237 548.759 267.544C548.759 270.685 547.85 273.62 546.031 276.348C544.213 279.076 541.774 281.515 538.715 283.664C535.657 285.813 532.267 287.591 528.547 288.996C524.91 290.319 521.231 291.187 517.511 291.6C517.429 291.931 517.346 292.303 517.263 292.716C517.263 293.047 517.263 293.625 517.263 294.452C517.263 294.865 517.305 295.609 517.387 296.684C517.553 297.676 517.925 298.751 518.503 299.908C519.082 301.065 520.033 302.057 521.355 302.884C522.678 303.711 524.497 304.124 526.811 304.124C530.283 304.124 533.755 303.173 537.227 301.272C540.782 299.288 544.089 296.684 547.147 293.46C550.289 290.236 552.893 286.64 554.959 282.672L557.439 284.656C555.207 289.616 552.314 293.956 548.759 297.676C545.287 301.396 541.402 304.289 537.103 306.356C532.887 308.423 528.547 309.456 524.083 309.456ZM518.875 287.012C521.025 286.764 523.422 286.02 526.067 284.78C528.713 283.54 531.234 281.969 533.631 280.068C536.111 278.167 538.137 276.1 539.707 273.868C541.278 271.553 542.063 269.239 542.063 266.924C542.063 266.015 541.898 265.395 541.567 265.064C541.237 264.733 540.699 264.568 539.955 264.568C538.054 264.568 536.07 265.271 534.003 266.676C531.937 267.999 529.911 269.776 527.927 272.008C525.943 274.157 524.166 276.555 522.595 279.2C521.025 281.845 519.785 284.449 518.875 287.012Z" stroke="#F7C553" stroke-width="6" stroke-linejoin="round" mask="url(#path-3-inside-2_9_3)"/>
            <path d="M332.055 463.788C325.772 463.788 320.605 462.3 316.555 459.324C312.587 456.348 309.652 452.504 307.751 447.792C305.932 443.08 305.023 438.203 305.023 433.16C305.023 426.629 306.015 420.099 307.999 413.568C309.983 406.955 312.711 400.672 316.183 394.72C319.737 388.768 323.747 383.477 328.211 378.848C332.675 374.219 337.428 370.581 342.471 367.936C347.596 365.208 352.68 363.844 357.723 363.844C361.36 363.844 364.419 364.712 366.899 366.448C369.379 368.101 370.619 370.995 370.619 375.128C370.619 377.608 370.164 380.377 369.255 383.436C368.428 386.495 367.271 389.471 365.783 392.364C364.377 395.175 362.765 397.489 360.947 399.308C359.128 401.127 357.268 402.036 355.367 402.036C354.54 402.036 353.672 401.747 352.763 401.168C351.853 400.589 351.027 399.597 350.283 398.192C351.523 396.787 352.928 395.092 354.499 393.108C356.069 391.041 357.557 388.892 358.963 386.66C360.368 384.345 361.525 382.113 362.435 379.964C363.344 377.732 363.799 375.789 363.799 374.136C363.799 372.648 363.385 371.491 362.559 370.664C361.732 369.755 360.285 369.3 358.219 369.3C354.581 369.3 350.82 370.664 346.935 373.392C343.132 376.12 339.453 379.799 335.899 384.428C332.344 388.975 329.12 394.1 326.227 399.804C323.416 405.425 321.184 411.253 319.531 417.288C317.877 423.24 317.051 428.903 317.051 434.276C317.051 438.244 317.629 442.047 318.787 445.684C320.027 449.239 321.969 452.132 324.615 454.364C327.26 456.679 330.732 457.836 335.031 457.836C339.495 457.836 343.917 456.596 348.299 454.116C352.763 451.636 356.813 448.371 360.451 444.32C364.171 440.269 367.147 435.929 369.379 431.3L372.603 433.408C369.709 438.947 366.237 444.031 362.187 448.66C358.136 453.207 353.548 456.844 348.423 459.572C343.38 462.383 337.924 463.788 332.055 463.788Z" stroke="#F7C553" stroke-width="6" stroke-linejoin="round" mask="url(#path-3-inside-2_9_3)"/>
            <path d="M375.869 456.72C373.059 456.72 370.744 455.439 368.925 452.876C367.189 450.231 366.321 447.213 366.321 443.824C366.321 441.509 366.693 438.781 367.437 435.64C368.181 432.499 369.132 429.44 370.289 426.464C371.529 423.488 372.769 421.008 374.009 419.024C375.332 417.04 376.531 416.048 377.605 416.048C378.184 416.048 379.052 416.379 380.209 417.04C381.449 417.619 382.524 418.363 383.433 419.272C382.524 420.595 381.408 422.62 380.085 425.348C378.845 428.076 377.729 431.011 376.737 434.152C375.745 437.293 375.249 440.145 375.249 442.708C375.249 443.039 375.291 443.824 375.373 445.064C375.539 446.304 375.869 447.461 376.365 448.536C376.861 449.611 377.729 450.148 378.969 450.148C380.375 450.148 381.863 449.404 383.433 447.916C385.087 446.345 386.74 444.361 388.393 441.964C390.129 439.484 391.783 436.839 393.353 434.028C395.007 431.217 396.453 428.489 397.693 425.844C399.016 423.199 400.091 420.967 400.917 419.148C401.661 419.231 402.612 419.437 403.769 419.768C405.009 420.099 406.084 420.553 406.993 421.132C407.903 421.628 408.357 422.372 408.357 423.364C408.357 423.612 407.944 424.645 407.117 426.464C406.373 428.2 405.464 430.308 404.389 432.788C403.397 435.268 402.488 437.831 401.661 440.476C400.917 443.039 400.545 445.312 400.545 447.296C400.545 448.453 400.752 449.487 401.165 450.396C401.661 451.223 402.571 451.636 403.893 451.636C405.629 451.636 407.696 450.851 410.093 449.28C412.491 447.709 414.971 445.436 417.533 442.46C420.096 439.484 422.369 435.929 424.353 431.796L426.213 433.284C424.395 437.748 422.039 441.757 419.145 445.312C416.252 448.867 413.152 451.636 409.845 453.62C406.539 455.687 403.315 456.72 400.173 456.72C397.776 456.72 395.957 456.141 394.717 454.984C393.56 453.909 392.775 452.504 392.361 450.768C391.948 448.949 391.7 447.131 391.617 445.312V442.832C390.212 445.064 388.683 447.255 387.029 449.404C385.376 451.471 383.599 453.207 381.697 454.612C379.879 456.017 377.936 456.72 375.869 456.72Z" stroke="#F7C553" stroke-width="6" stroke-linejoin="round" mask="url(#path-3-inside-2_9_3)"/>
            <path d="M445.732 400.796C444.161 400.796 442.714 400.424 441.392 399.68C440.152 398.853 439.532 397.613 439.532 395.96C439.532 393.976 440.606 392.281 442.756 390.876C444.905 389.471 447.137 388.768 449.452 388.768C450.94 388.768 452.18 389.099 453.172 389.76C454.246 390.421 454.784 391.62 454.784 393.356C454.784 395.092 453.833 396.787 451.932 398.44C450.03 400.011 447.964 400.796 445.732 400.796ZM431.1 456.72C427.462 456.72 424.734 455.645 422.916 453.496C421.097 451.347 420.188 448.743 420.188 445.684C420.188 443.783 420.518 441.385 421.18 438.492C421.841 435.599 422.75 432.581 423.908 429.44C425.148 426.216 426.553 423.199 428.124 420.388C429.694 417.577 431.389 415.304 433.208 413.568C435.026 411.749 436.845 410.84 438.664 410.84C439.656 410.84 440.524 411.171 441.268 411.832C442.012 412.411 442.384 413.279 442.384 414.436C442.384 415.511 441.722 417.123 440.4 419.272C439.16 421.421 437.672 423.901 435.936 426.712C434.282 429.523 432.794 432.457 431.472 435.516C430.232 438.492 429.612 441.344 429.612 444.072C429.612 446.717 430.066 448.495 430.976 449.404C431.968 450.231 433.373 450.644 435.192 450.644C438.002 450.644 441.061 449.239 444.368 446.428C447.674 443.617 451.105 438.699 454.66 431.672L456.52 433.656C453.626 440.931 449.948 446.593 445.484 450.644C441.02 454.695 436.225 456.72 431.1 456.72Z" stroke="#F7C553" stroke-width="6" stroke-linejoin="round" mask="url(#path-3-inside-2_9_3)"/>
            <path d="M465.961 459.324C461.828 459.324 458.48 458.456 455.917 456.72C453.437 455.067 451.66 452.959 450.585 450.396C449.51 447.751 448.973 445.064 448.973 442.336C448.973 439.939 449.304 438.079 449.965 436.756C450.626 435.433 451.453 434.483 452.445 433.904C453.437 433.243 454.346 432.747 455.173 432.416C456.082 432.085 456.744 431.713 457.157 431.3C459.224 429.151 461.332 426.671 463.481 423.86C465.713 420.967 467.614 417.784 469.185 414.312V413.072C469.185 409.765 469.722 407.451 470.797 406.128C471.954 404.723 473.277 404.02 474.765 404.02C475.757 404.02 476.46 404.268 476.873 404.764C477.369 405.26 477.658 405.839 477.741 406.5C477.741 406.996 477.617 407.575 477.369 408.236C477.204 408.897 477.121 409.807 477.121 410.964C477.121 413.444 477.7 416.296 478.857 419.52C480.097 422.661 481.296 426.009 482.453 429.564C483.693 433.119 484.313 436.756 484.313 440.476C484.313 441.468 484.272 442.377 484.189 443.204C484.106 444.031 483.982 444.816 483.817 445.56C486.38 444.899 488.901 443.493 491.381 441.344C493.861 439.112 496.217 435.847 498.449 431.548L499.937 432.664C498.366 437.376 496.093 441.179 493.117 444.072C490.141 446.883 486.669 448.619 482.701 449.28C481.378 452.669 479.188 455.191 476.129 456.844C473.153 458.497 469.764 459.324 465.961 459.324ZM474.021 445.312C474.186 444.733 474.269 444.072 474.269 443.328C474.352 442.501 474.393 441.881 474.393 441.468C474.31 437.748 473.814 434.069 472.905 430.432C471.996 426.795 471.086 423.075 470.177 419.272C468.689 421.835 466.953 424.604 464.969 427.58C462.985 430.556 461.125 432.953 459.389 434.772C460.712 437.004 462.654 439.112 465.217 441.096C467.78 443.08 470.714 444.485 474.021 445.312ZM465.093 453.868C466.746 453.868 468.276 453.455 469.681 452.628C471.086 451.801 472.202 450.603 473.029 449.032C469.64 448.288 466.581 446.965 463.853 445.064C461.125 443.163 459.017 441.22 457.529 439.236C456.372 439.484 455.793 440.6 455.793 442.584C455.793 445.312 456.578 447.875 458.149 450.272C459.72 452.669 462.034 453.868 465.093 453.868Z" stroke="#F7C553" stroke-width="6" stroke-linejoin="round" mask="url(#path-3-inside-2_9_3)"/>
            <path d="M519.478 400.796C517.907 400.796 516.46 400.424 515.138 399.68C513.898 398.853 513.278 397.613 513.278 395.96C513.278 393.976 514.352 392.281 516.502 390.876C518.651 389.471 520.883 388.768 523.198 388.768C524.686 388.768 525.926 389.099 526.918 389.76C527.992 390.421 528.53 391.62 528.53 393.356C528.53 395.092 527.579 396.787 525.678 398.44C523.776 400.011 521.71 400.796 519.478 400.796ZM504.846 456.72C501.208 456.72 498.48 455.645 496.662 453.496C494.843 451.347 493.934 448.743 493.934 445.684C493.934 443.783 494.264 441.385 494.926 438.492C495.587 435.599 496.496 432.581 497.654 429.44C498.894 426.216 500.299 423.199 501.87 420.388C503.44 417.577 505.135 415.304 506.954 413.568C508.772 411.749 510.591 410.84 512.41 410.84C513.402 410.84 514.27 411.171 515.014 411.832C515.758 412.411 516.13 413.279 516.13 414.436C516.13 415.511 515.468 417.123 514.146 419.272C512.906 421.421 511.418 423.901 509.682 426.712C508.028 429.523 506.54 432.457 505.218 435.516C503.978 438.492 503.358 441.344 503.358 444.072C503.358 446.717 503.812 448.495 504.722 449.404C505.714 450.231 507.119 450.644 508.938 450.644C511.748 450.644 514.807 449.239 518.114 446.428C521.42 443.617 524.851 438.699 528.406 431.672L530.266 433.656C527.372 440.931 523.694 446.593 519.23 450.644C514.766 454.695 509.971 456.72 504.846 456.72Z" stroke="#F7C553" stroke-width="6" stroke-linejoin="round" mask="url(#path-3-inside-2_9_3)"/>
            <path d="M566.987 455.48C563.763 455.48 561.283 454.653 559.547 453C557.894 451.429 557.067 449.404 557.067 446.924C557.067 445.271 557.357 443.535 557.935 441.716C558.514 439.815 559.093 437.913 559.671 436.012C560.25 434.111 560.539 432.292 560.539 430.556C560.539 428.737 560.085 427.497 559.175 426.836C558.349 426.092 557.357 425.72 556.199 425.72C553.719 425.72 551.157 426.753 548.511 428.82C545.949 430.804 543.427 433.325 540.947 436.384C538.55 439.443 536.277 442.625 534.127 445.932C531.978 449.239 530.118 452.215 528.547 454.86C526.977 454.86 525.489 454.571 524.083 453.992C522.678 453.496 521.479 452.587 520.487 451.264C520.57 450.851 521.066 449.611 521.975 447.544C522.802 445.395 523.753 442.873 524.827 439.98C525.902 437.004 526.853 433.904 527.679 430.68C528.506 427.456 528.919 424.521 528.919 421.876C529.498 421.215 530.366 420.553 531.523 419.892C532.763 419.231 534.045 418.9 535.367 418.9C538.261 418.9 539.707 420.14 539.707 422.62C539.707 424.852 539.005 428.531 537.599 433.656C539.749 430.763 542.105 428.035 544.667 425.472C547.23 422.909 549.875 420.843 552.603 419.272C555.414 417.619 558.225 416.792 561.035 416.792C564.59 416.792 567.194 417.991 568.847 420.388C570.583 422.785 571.451 425.431 571.451 428.324C571.451 430.804 571.038 433.119 570.211 435.268C569.385 437.417 568.558 439.443 567.731 441.344C566.987 443.245 566.615 445.105 566.615 446.924C566.615 448.247 566.905 449.197 567.483 449.776C568.145 450.272 568.847 450.52 569.591 450.52C571.575 450.52 573.642 449.569 575.791 447.668C577.941 445.767 579.966 443.369 581.867 440.476C583.851 437.5 585.587 434.524 587.075 431.548L589.183 433.284C587.447 437.335 585.463 441.055 583.231 444.444C581.082 447.751 578.643 450.437 575.915 452.504C573.27 454.488 570.294 455.48 566.987 455.48Z" stroke="#F7C553" stroke-width="6" stroke-linejoin="round" mask="url(#path-3-inside-2_9_3)"/>
            <path d="M598.193 458.456C592.902 458.456 588.81 457.009 585.917 454.116C583.106 451.305 581.701 447.751 581.701 443.452C581.701 439.815 582.61 435.971 584.429 431.92C586.33 427.787 588.851 423.943 591.993 420.388C595.134 416.751 598.606 413.816 602.409 411.584C606.211 409.352 610.014 408.236 613.817 408.236C615.966 408.236 617.991 408.815 619.893 409.972C621.877 411.047 622.869 413.237 622.869 416.544C622.869 419.685 621.959 422.62 620.141 425.348C618.322 428.076 615.883 430.515 612.825 432.664C609.766 434.813 606.377 436.591 602.657 437.996C599.019 439.319 595.341 440.187 591.621 440.6C591.538 440.931 591.455 441.303 591.373 441.716C591.373 442.047 591.373 442.625 591.373 443.452C591.373 443.865 591.414 444.609 591.497 445.684C591.662 446.676 592.034 447.751 592.613 448.908C593.191 450.065 594.142 451.057 595.465 451.884C596.787 452.711 598.606 453.124 600.921 453.124C604.393 453.124 607.865 452.173 611.337 450.272C614.891 448.288 618.198 445.684 621.257 442.46C624.398 439.236 627.002 435.64 629.069 431.672L631.549 433.656C629.317 438.616 626.423 442.956 622.869 446.676C619.397 450.396 615.511 453.289 611.213 455.356C606.997 457.423 602.657 458.456 598.193 458.456ZM592.985 436.012C595.134 435.764 597.531 435.02 600.177 433.78C602.822 432.54 605.343 430.969 607.741 429.068C610.221 427.167 612.246 425.1 613.817 422.868C615.387 420.553 616.173 418.239 616.173 415.924C616.173 415.015 616.007 414.395 615.677 414.064C615.346 413.733 614.809 413.568 614.065 413.568C612.163 413.568 610.179 414.271 608.113 415.676C606.046 416.999 604.021 418.776 602.037 421.008C600.053 423.157 598.275 425.555 596.705 428.2C595.134 430.845 593.894 433.449 592.985 436.012Z" stroke="#F7C553" stroke-width="6" stroke-linejoin="round" mask="url(#path-3-inside-2_9_3)"/>
        </g><!-- #restourant_name -->
        <g id="fork">
            <mask id="path-4-inside-3_9_3" fill="white">
                <path d="M8.83592 89.1535C8.18946 90.3289 8.01315 92.5621 2.95897 162.968C-0.743503 214.509 -0.802272 215.332 1.84235 220.856C2.60636 222.384 5.95622 226.439 9.95254 230.553C17.5338 238.31 19.7083 241.778 21.8827 249.594C22.9994 253.767 23.1169 255.824 23.352 278.45C23.7634 323.056 22.6468 342.803 14.9479 430.016C13.1849 449.822 11.7156 467.982 11.7156 470.332C11.7156 477.502 15.6532 483.673 22.2354 486.729C26.0554 488.433 33.284 488.433 37.0453 486.67C40.5127 485.083 44.3915 481.616 45.8607 478.795C48.2702 474.035 48.329 472.213 46.3896 450.938C36.7514 344.037 36.2225 335.221 36.1637 289.028C36.105 251.827 36.1637 250.77 40.3364 242.072C42.0407 238.487 43.745 236.371 49.3281 230.612C53.0893 226.674 56.7918 222.384 57.4383 221.091C60.1417 215.802 60.1417 213.745 57.5558 178.542C56.2629 160.617 54.441 134.7 53.442 120.948C52.4429 107.196 51.4438 94.3839 51.2087 92.5033C50.7386 88.6245 49.5632 87.2141 47.8589 88.6245C46.9773 89.3885 46.9185 93.1498 47.3299 139.46C47.6825 186.241 47.6825 189.532 46.7422 190.472C46.1545 191.001 44.9792 191.471 44.0976 191.471C40.5127 191.471 40.689 193.469 39.6311 145.925C38.4557 93.5612 38.2794 89.271 36.8102 88.3895C34.4006 86.9202 34.2831 88.3307 33.8717 115.776C33.6366 130.116 33.4603 152.448 33.4603 165.436C33.4603 188.356 33.4016 189.179 32.2849 190.296C30.9332 191.647 28.8763 191.824 27.2308 190.648C26.1729 189.826 26.1141 188.415 25.7615 139.813C25.4677 101.142 25.2326 89.6236 24.6449 88.9184C23.6458 87.6842 22.4704 87.8018 21.7064 89.2122C21.3538 89.9175 20.7661 104.669 20.2372 128.411C19.003 183.949 18.768 189.591 17.7689 190.59C16.6523 191.765 13.7726 191.706 12.5972 190.472C11.7156 189.591 11.6569 185.594 12.0682 139.695C12.4796 87.9193 12.4796 88.0369 10.1876 88.0369C9.77623 88.0369 9.12977 88.507 8.83592 89.1535Z" />
            </mask>
            <path d="M8.83592 89.1535C8.18946 90.3289 8.01315 92.5621 2.95897 162.968C-0.743503 214.509 -0.802272 215.332 1.84235 220.856C2.60636 222.384 5.95622 226.439 9.95254 230.553C17.5338 238.31 19.7083 241.778 21.8827 249.594C22.9994 253.767 23.1169 255.824 23.352 278.45C23.7634 323.056 22.6468 342.803 14.9479 430.016C13.1849 449.822 11.7156 467.982 11.7156 470.332C11.7156 477.502 15.6532 483.673 22.2354 486.729C26.0554 488.433 33.284 488.433 37.0453 486.67C40.5127 485.083 44.3915 481.616 45.8607 478.795C48.2702 474.035 48.329 472.213 46.3896 450.938C36.7514 344.037 36.2225 335.221 36.1637 289.028C36.105 251.827 36.1637 250.77 40.3364 242.072C42.0407 238.487 43.745 236.371 49.3281 230.612C53.0893 226.674 56.7918 222.384 57.4383 221.091C60.1417 215.802 60.1417 213.745 57.5558 178.542C56.2629 160.617 54.441 134.7 53.442 120.948C52.4429 107.196 51.4438 94.3839 51.2087 92.5033C50.7386 88.6245 49.5632 87.2141 47.8589 88.6245C46.9773 89.3885 46.9185 93.1498 47.3299 139.46C47.6825 186.241 47.6825 189.532 46.7422 190.472C46.1545 191.001 44.9792 191.471 44.0976 191.471C40.5127 191.471 40.689 193.469 39.6311 145.925C38.4557 93.5612 38.2794 89.271 36.8102 88.3895C34.4006 86.9202 34.2831 88.3307 33.8717 115.776C33.6366 130.116 33.4603 152.448 33.4603 165.436C33.4603 188.356 33.4016 189.179 32.2849 190.296C30.9332 191.647 28.8763 191.824 27.2308 190.648C26.1729 189.826 26.1141 188.415 25.7615 139.813C25.4677 101.142 25.2326 89.6236 24.6449 88.9184C23.6458 87.6842 22.4704 87.8018 21.7064 89.2122C21.3538 89.9175 20.7661 104.669 20.2372 128.411C19.003 183.949 18.768 189.591 17.7689 190.59C16.6523 191.765 13.7726 191.706 12.5972 190.472C11.7156 189.591 11.6569 185.594 12.0682 139.695C12.4796 87.9193 12.4796 88.0369 10.1876 88.0369C9.77623 88.0369 9.12977 88.507 8.83592 89.1535Z" stroke="#F7C553" stroke-width="6" mask="url(#path-4-inside-3_9_3)"/>
        </g><!-- #fork -->
        <g id="knife">
            <mask id="path-5-inside-4_9_3" fill="white">
                <path d="M740.189 88.3267C739.604 88.5925 738.382 89.6555 737.478 90.6654C725.891 103.9 714.463 155.511 710.211 213.926C709.254 227.16 708.67 252.461 709.201 257.936C710.371 269.735 713.826 277.336 723.34 289.189C727.167 293.867 729.559 297.8 731.259 301.999C733.917 308.537 733.917 308.962 730.728 360.626C729.08 386.724 727.539 411.652 727.22 416.064C725.891 435.305 724.031 467.409 724.031 471.342C724.031 475.116 724.243 476.126 725.625 478.943C726.529 480.697 728.124 482.929 729.187 483.886C736.787 490.53 748.481 488.935 754.168 480.484C756.879 476.445 757.091 474.159 756.188 461.03C754.646 439.185 752.733 405.858 751.67 383.641C751.085 371.363 750.341 355.576 750.022 348.56C749.597 339.843 749.331 297.534 749.225 215.148C749.066 137.599 748.853 93.8014 748.481 92.5789C748.215 91.569 747.365 90.187 746.674 89.4961C745.292 88.1673 741.943 87.5826 740.189 88.3267Z" />
            </mask>
            <path d="M740.189 88.3267C739.604 88.5925 738.382 89.6555 737.478 90.6654C725.891 103.9 714.463 155.511 710.211 213.926C709.254 227.16 708.67 252.461 709.201 257.936C710.371 269.735 713.826 277.336 723.34 289.189C727.167 293.867 729.559 297.8 731.259 301.999C733.917 308.537 733.917 308.962 730.728 360.626C729.08 386.724 727.539 411.652 727.22 416.064C725.891 435.305 724.031 467.409 724.031 471.342C724.031 475.116 724.243 476.126 725.625 478.943C726.529 480.697 728.124 482.929 729.187 483.886C736.787 490.53 748.481 488.935 754.168 480.484C756.879 476.445 757.091 474.159 756.188 461.03C754.646 439.185 752.733 405.858 751.67 383.641C751.085 371.363 750.341 355.576 750.022 348.56C749.597 339.843 749.331 297.534 749.225 215.148C749.066 137.599 748.853 93.8014 748.481 92.5789C748.215 91.569 747.365 90.187 746.674 89.4961C745.292 88.1673 741.943 87.5826 740.189 88.3267Z" stroke="#F7C553" stroke-width="6" mask="url(#path-5-inside-4_9_3)"/>
        </g><!-- #knife -->
    </g><!-- #la_petite_cuisine -->
</svg>
